<?xml version="1.0" encoding="UTF-8" standalone="no"?><svg  xmlns:dc="http://purl.org/dc/elements/1.1/"  xmlns:cc="http://creativecommons.org/ns#"  xmlns:rdf="http://www.w3.org/1999/02/22-rdf-syntax-ns#"  xmlns:svg="http://www.w3.org/2000/svg"  xmlns="http://www.w3.org/2000/svg"  width="43.910107mm"  height="64.625839mm"  viewBox="0 0 43.910107 64.625839"  version="1.1"  id="svg4692"><defs id="defs4686" /><g label="Layer 1" groupmode="layer" id="layer1" transform="translate(-83.87828,-116.52041)"><path style="display:inline;opacity:1;fill:none;stroke:#ffffff;stroke-width:1.5;stroke-linecap:butt;stroke-linejoin:miter;stroke-miterlimit:4;stroke-dasharray:none;stroke-opacity:1" d="m 111.55443,162.91826 -1.4535,2.18025 -2.47096,1.45351 -3.05236,0.5814 -1.74421,-0.2907 -2.32561,-1.4535 -1.744202,-2.61631 -0.581401,-3.05237 -0.145351,-2.6163 -0.145352,-1.88956 -1.453504,-1.88956 -1.308153,-2.3256 -0.872104,-1.74421 -0.726752,-1.59885 v -3.34307 l -2.616311,-0.5814 -2.325606,-1.4535 -2.907011,-2.03491 -0.290701,-2.76166 -0.145351,-2.18026 1.162804,-0.8721 1.598856,-0.2907 1.453504,0.72675 1.744208,0.8721 2.907009,1.30816 1.162804,0.43605 h 1.598856 l 2.470959,-1.45351 3.343059,-1.01745 2.90701,-0.43605 2.61631,-0.14535 2.32561,0.5814 2.0349,1.1628 1.88956,0.87211 1.01746,0.72675 3.1977,-1.1628 4.21517,-1.74421 1.30815,-0.5814 2.18026,0.2907 -0.14535,2.03491 -0.5814,3.05236 -2.61631,3.05236 -2.18026,0.2907 -2.3256,0.2907 -1.88956,-0.14535 -0.8721,0.43605 0.5814,2.18026 -0.2907,2.47096 -0.72676,2.0349 -1.1628,2.76166 -1.01745,1.45351 -1.01746,2.18025 v 2.47096 l -0.2907,1.74421 z" id="path3820" connector-curvature="0" /><path style="display:inline;opacity:1;fill:none;stroke:#ffffff;stroke-width:1.5;stroke-linecap:butt;stroke-linejoin:miter;stroke-miterlimit:4;stroke-dasharray:none;stroke-opacity:1" d="m 96.874032,137.48192 -0.436052,-6.10472 -2.034908,-6.83148 -6.104721,-6.39542 7.703577,0.43605 6.395422,5.23262 0.2907,4.36052 v 0 0 -0.43606" id="path4640" connector-curvature="0" /><path style="display:inline;opacity:1;fill:none;stroke:#ffffff;stroke-width:1.5;stroke-linecap:butt;stroke-linejoin:miter;stroke-miterlimit:4;stroke-dasharray:none;stroke-opacity:1" d="m 105.59506,134.57491 0.72675,-6.83148 4.36052,-5.66866 5.23261,-3.63377 7.26753,-0.43605 -2.03491,2.90701 -2.6163,2.47096 -2.32561,4.36051 -0.58141,4.50587 v 0 0 -0.43605" id="path4642" connector-curvature="0" /><path style="display:inline;opacity:1;fill:none;stroke:#ffffff;stroke-width:1.5;stroke-linecap:butt;stroke-linejoin:miter;stroke-miterlimit:4;stroke-dasharray:none;stroke-opacity:1" d="m 107.19392,147.45887 h 6.10472 v 0 0 0" id="path4650" connector-curvature="0" /><path style="display:inline;opacity:1;fill:none;stroke:#ffffff;stroke-width:1.5;stroke-linecap:butt;stroke-linejoin:miter;stroke-miterlimit:4;stroke-dasharray:none;stroke-opacity:1" d="m 97.600784,147.45887 h 6.104716 v 0 0 0" id="path4650-3" connector-curvature="0" /><path style="display:inline;opacity:1;fill:none;stroke:#ffffff;stroke-width:1.5;stroke-linecap:butt;stroke-linejoin:miter;stroke-miterlimit:4;stroke-dasharray:none;stroke-opacity:1" d="m 98.763588,162.77291 0.145352,6.10472 -1.889557,4.65121 2.470957,-0.5814 1.1628,4.94192 3.92447,-4.50587 1.30815,3.19771 1.45351,-2.76165 4.36051,4.06981 -0.2907,-4.21517 2.47096,1.01746 -2.32561,-4.36052 1.30815,-4.50586 -1.30815,-2.90701 v 0 0 0 0" id="path4667" connector-curvature="0" /><path style="display:inline;opacity:1;fill:none;stroke:#ffffff;stroke-width:1.5;stroke-linecap:butt;stroke-linejoin:miter;stroke-miterlimit:4;stroke-dasharray:none;stroke-opacity:1" d="m 102.68805,156.81354 h 5.08727 l 0.8721,2.18025 -3.05236,2.32561 -3.48841,-2.18026 z" id="path4669" connector-curvature="0" /></g></svg> 
